<?xml version="1.0" encoding="utf-8"?>
<!-- Generator: Adobe Illustrator 22.1.0, SVG Export Plug-In . SVG Version: 6.00 Build 0)  -->
<svg version="1.1" id="Calque_1" xmlns="http://www.w3.org/2000/svg" xmlns:xlink="http://www.w3.org/1999/xlink" x="0px" y="0px"
	 viewBox="0 0 850.4 850.4" style="enable-background:new 0 0 850.4 850.4;" xml:space="preserve">
<style type="text/css">
	.st0{fill:#FFFFFF;}
</style>
<g>
	<path class="st0" d="M430.3,189.8V5.2c0-2.9-2.3-5.2-5.2-5.2s-5.2,2.3-5.2,5.2v184.5c1.7-0.1,3.5-0.1,5.2-0.1
		C426.8,189.6,428.6,189.7,430.3,189.8z"/>
	<path class="st0" d="M350.2,20.5c-0.7-2.5-3.1-4.1-5.6-3.8c-2.6,0.3-4.5,2.4-4.7,4.9l-5.5,109.7l9.8,12.4l4.4-88.9l38.8,142
		c3-1.3,6.4-2.5,9.9-3.5L350.2,20.5z"/>
	<path class="st0" d="M500.4,54.9l4.4,88.9l9.9-12.4l-5.4-109.7c-0.1-2.6-2.1-4.7-4.7-4.9c-2.5-0.3-4.9,1.3-5.6,3.8L451.7,193
		c3.5,1,6.8,2.1,9.9,3.4L500.4,54.9z"/>
	<path class="st0" d="M378,202.2L230.7,16.7c-1.3-1.7-3.6-2.3-5.6-1.6s-3.4,2.6-3.4,4.8v75.4l10.1,7.7V34.4L370,208.6l0.7,0.5
		C372.6,206.6,375.1,204.3,378,202.2z"/>
	<path class="st0" d="M623.9,15c-2-0.7-4.3-0.1-5.6,1.6l-146.9,185c3,2.1,5.6,4.3,7.6,6.8l138.2-174V103l10.1-7.7V19.8
		C627.3,17.7,626,15.7,623.9,15z"/>
	<path class="st0" d="M129,49.2l183.9,140.4l17.3,9.2c0.1,0.1,10,6,26.3,12.3l-229.3-175c-1.4-1.1-3.3-1.3-4.9-0.5s-2.6,2.4-2.6,4.2
		l-0.3,46.6l9.3,5L129,49.2z"/>
	<path class="st0" d="M720.1,49.2l0.3,43.5l9.3-5.1l-0.3-47.8c0-1.8-1-3.4-2.6-4.2s-3.5-0.6-4.9,0.5L482.4,218.9
		c12.6-3.8,24.7-9.2,36.4-16.1L720.1,49.2z"/>
	<path class="st0" d="M531.1,208.2c-100.6,64.9-206.6,0-206.6,0L63.6,69.1v596l260.9,139.1c0,0,105.9,64.9,206.6,0l255.6-139.1v-596
		L531.1,208.2z M373.3,770.7h-16v-512h16V770.7z M491.9,770.7h-16v-512h16V770.7z"/>
</g>
</svg>
